# xmcd
#
# Track frame offsets:
#	150
#	15147
#	32036
#	43431
#	60649
#	74033
#	87842
#	103969
#	123630
#	133045
#	137021
#	154300
#	167500
#	181084
#	191788
#	206184
#	214016
#	226558
#	233161
#	247811
#	255689
#	269360
#	280186
#	289041
#	297190
#	305309
#	313700
#	319267
#	332200
#	344779
#
# Disc length: 4797 seconds
#
# Revision: 0
# Processed by: cddbd v1.5PL3 Copyright (c) Steve Scherf et al.
# Submitted via: EasyCDDAExtractor 5.0.2.1
#
DISCID=cd12bb1e
DTITLE=Various Artist - plastic bomb #46
DYEAR=2004
DGENRE=Punk
TTITLE0=schrottgrenze - belladonna
TTITLE1=bitume - zeitzeichen
TTITLE2=descendents - nothing with you
TTITLE3=leatherface - small yellow car
TTITLE4=voice of a generation - cause foralarm
TTITLE5=torjohnson - like a facist's mind
TTITLE6=swantje - mediengewltdiskurs
TTITLE7=mono fuer alle - amoklauf
TTITLE8=die chinesischen glueckskekse - pornostar
TTITLE9=neuron - rassistenschwein
TTITLE10=razzia - licht am horizont
TTITLE11=drosphilia - blick zurueck
TTITLE12=loaded - somebody got dead
TTITLE13=carlos mogutseu - rasta knast
TTITLE14=kasa - alarmzustand
TTITLE15=fade out - meisterplan
TTITLE16=step down - show me the way
TTITLE17=VVL - ein neuer koenig
TTITLE18=freibeuter ag - lauf
TTITLE19=the motonautics - dear big mother
TTITLE20=speedstar - this is our way
TTITLE21=stopcox - barcode misery
TTITLE22=ansicht X - angst
TTITLE23=vittu ei kiitos - koko helvetin maa hukkuu alkoholiin
TTITLE24=telepilot310 - die with a smile
TTITLE25=shit lives on - das leben ist schön
TTITLE26=kaputt und schlecht - zivilisation
TTITLE27=annex 5 - don't call me
TTITLE28=from bottle to brain - stole time
TTITLE29=wer nix weiss - glaubt viel - scheisse bleibt scheisse
EXTD=
EXTT0=
EXTT1=
EXTT2=
EXTT3=
EXTT4=
EXTT5=
EXTT6=
EXTT7=
EXTT8=
EXTT9=
EXTT10=
EXTT11=
EXTT12=
EXTT13=
EXTT14=
EXTT15=
EXTT16=
EXTT17=
EXTT18=
EXTT19=
EXTT20=
EXTT21=
EXTT22=
EXTT23=
EXTT24=
EXTT25=
EXTT26=
EXTT27=
EXTT28=
EXTT29=
PLAYORDER=
